<svg width="25" height="24" viewBox="0 0 25 24" fill="none" xmlns="http://www.w3.org/2000/svg">
<path d="M4.034 8H20.1548" stroke="#54ACF8" stroke-width="1.5" stroke-linecap="round" stroke-linejoin="round"/>
<path d="M16.1245 3V5" stroke="#54ACF8" stroke-width="1.5" stroke-linecap="round" stroke-linejoin="round"/>
<path d="M8.06415 3V5" stroke="#54ACF8" stroke-width="1.5" stroke-linecap="round" stroke-linejoin="round"/>
<path d="M3.02643 6C3.02643 4.89543 3.92862 4 5.04152 4H19.1472C20.2601 4 21.1623 4.89543 21.1623 6V19C21.1623 20.1046 20.2601 21 19.1472 21H5.04152C3.92862 21 3.02643 20.1046 3.02643 19V6Z" stroke="#54ACF8" stroke-width="1.5" stroke-linecap="round" stroke-linejoin="round"/>
<path d="M16.1245 16.5H16.1265V16.502H16.1245V16.5Z" stroke="#54ACF8" stroke-width="2" stroke-linecap="round" stroke-linejoin="round"/>
<path d="M12.0944 16.5H12.0964V16.502H12.0944V16.5Z" stroke="#54ACF8" stroke-width="2" stroke-linecap="round" stroke-linejoin="round"/>
<path d="M8.06415 16.5H8.06615V16.502H8.06415V16.5Z" stroke="#54ACF8" stroke-width="2" stroke-linecap="round" stroke-linejoin="round"/>
<path d="M16.1245 12.5H16.1265V12.502H16.1245V12.5Z" stroke="#54ACF8" stroke-width="1.5" stroke-linecap="round" stroke-linejoin="round"/>
<path d="M12.0944 12.5H12.0964V12.502H12.0944V12.5Z" stroke="#54ACF8" stroke-width="1.5" stroke-linecap="round" stroke-linejoin="round"/>
<path d="M8.06415 12.5H8.06615V12.502H8.06415V12.5Z" stroke="#54ACF8" stroke-width="1.5" stroke-linecap="round" stroke-linejoin="round"/>
</svg>
