<svg width="18" height="18" viewBox="0 0 18 18" fill="none" xmlns="http://www.w3.org/2000/svg">
<g clip-path="url(#clip0_1_814)">
<path d="M0 8.08895C0 7.04757 0.847227 6.20035 1.88861 6.20035C2.92999 6.20035 3.77722 7.04757 3.77722 8.08895C3.77722 8.56268 3.60147 8.99583 3.31241 9.32768L5.26476 11.1187L7.75473 5.97289L6.29943 4.26355L8.98977 1.10348L11.68 4.26363L10.2895 5.89688L12.7618 11.0894L14.6867 9.3267C14.398 8.99493 14.2227 8.56219 14.2227 8.08895C14.2227 7.04757 15.0699 6.20035 16.1113 6.20035C17.1528 6.20035 18 7.04757 18 8.08895C18 9.05392 17.2722 9.85173 16.3368 9.96365L15.7581 16.8965H2.24182L1.66312 9.96365C0.727774 9.85173 0 9.05392 0 8.08895Z" fill="#FFC122"/>
</g>
<defs>
<clipPath id="clip0_1_814">
<rect width="18" height="18" fill="white" transform="matrix(-1 0 0 1 18 0)"/>
</clipPath>
</defs>
</svg>
